<mxfile host="app.diagrams.net" modified="2023-12-08T15:52:22.659Z" agent="Mozilla/5.0 (Windows NT 10.0; Win64; x64) AppleWebKit/537.36 (KHTML, like Gecko) Chrome/119.0.0.0 Safari/537.36" etag="kNOlqbpdLFVB_Xbet4Kl" version="22.1.7" type="device">
  <diagram id="C5RBs43oDa-KdzZeNtuy" name="Page-1">
    <mxGraphModel dx="997" dy="920" grid="1" gridSize="10" guides="1" tooltips="1" connect="1" arrows="1" fold="1" page="1" pageScale="1" pageWidth="827" pageHeight="1169" math="0" shadow="0">
      <root>
        <mxCell id="WIyWlLk6GJQsqaUBKTNV-0" />
        <mxCell id="WIyWlLk6GJQsqaUBKTNV-1" parent="WIyWlLk6GJQsqaUBKTNV-0" />
        <mxCell id="U0WkkxZh4tvvfNrw1rPE-0" value="Puzzle" style="swimlane;fontStyle=1;align=center;verticalAlign=top;childLayout=stackLayout;horizontal=1;startSize=26;horizontalStack=0;resizeParent=1;resizeParentMax=0;resizeLast=0;collapsible=1;marginBottom=0;whiteSpace=wrap;html=1;fontSize=16;" vertex="1" parent="WIyWlLk6GJQsqaUBKTNV-1">
          <mxGeometry x="70" y="230" width="450" height="330" as="geometry" />
        </mxCell>
        <mxCell id="U0WkkxZh4tvvfNrw1rPE-1" value="- Score: int&lt;br&gt;- SymbolsLeft: int&lt;br&gt;- GridSize: int&lt;br&gt;- Grid: list&lt;br&gt;- AllowedPatterns: list&lt;br&gt;- AllowedSymbols: list" style="text;strokeColor=none;fillColor=none;align=left;verticalAlign=top;spacingLeft=4;spacingRight=4;overflow=hidden;rotatable=0;points=[[0,0.5],[1,0.5]];portConstraint=eastwest;whiteSpace=wrap;html=1;fontSize=16;" vertex="1" parent="U0WkkxZh4tvvfNrw1rPE-0">
          <mxGeometry y="26" width="450" height="144" as="geometry" />
        </mxCell>
        <mxCell id="U0WkkxZh4tvvfNrw1rPE-2" value="" style="line;strokeWidth=1;fillColor=none;align=left;verticalAlign=middle;spacingTop=-1;spacingLeft=3;spacingRight=3;rotatable=0;labelPosition=right;points=[];portConstraint=eastwest;strokeColor=inherit;fontSize=16;" vertex="1" parent="U0WkkxZh4tvvfNrw1rPE-0">
          <mxGeometry y="170" width="450" height="8" as="geometry" />
        </mxCell>
        <mxCell id="U0WkkxZh4tvvfNrw1rPE-3" value="- LoadPuzzle(str)&lt;br&gt;+ AttemptPuzzle(): int&lt;br&gt;- GetCell(Row: int, Column: int): Grid&lt;br&gt;+ CheckforMatchWithPattern(Row: int, Column: int): int&lt;br&gt;- GetSymbolFromUser(): str&lt;br&gt;- CreateHorizontalLine(): str&lt;br&gt;+ DisplayPuzzle()" style="text;strokeColor=none;fillColor=none;align=left;verticalAlign=top;spacingLeft=4;spacingRight=4;overflow=hidden;rotatable=0;points=[[0,0.5],[1,0.5]];portConstraint=eastwest;whiteSpace=wrap;html=1;fontSize=16;" vertex="1" parent="U0WkkxZh4tvvfNrw1rPE-0">
          <mxGeometry y="178" width="450" height="152" as="geometry" />
        </mxCell>
        <mxCell id="U0WkkxZh4tvvfNrw1rPE-4" value="Pattern" style="swimlane;fontStyle=1;align=center;verticalAlign=top;childLayout=stackLayout;horizontal=1;startSize=26;horizontalStack=0;resizeParent=1;resizeParentMax=0;resizeLast=0;collapsible=1;marginBottom=0;whiteSpace=wrap;html=1;fontSize=16;" vertex="1" parent="WIyWlLk6GJQsqaUBKTNV-1">
          <mxGeometry x="70" y="700" width="450" height="150" as="geometry" />
        </mxCell>
        <mxCell id="U0WkkxZh4tvvfNrw1rPE-5" value="- Symbol: str&lt;br&gt;- PatternSequence: str" style="text;strokeColor=none;fillColor=none;align=left;verticalAlign=top;spacingLeft=4;spacingRight=4;overflow=hidden;rotatable=0;points=[[0,0.5],[1,0.5]];portConstraint=eastwest;whiteSpace=wrap;html=1;fontSize=16;" vertex="1" parent="U0WkkxZh4tvvfNrw1rPE-4">
          <mxGeometry y="26" width="450" height="54" as="geometry" />
        </mxCell>
        <mxCell id="U0WkkxZh4tvvfNrw1rPE-6" value="" style="line;strokeWidth=1;fillColor=none;align=left;verticalAlign=middle;spacingTop=-1;spacingLeft=3;spacingRight=3;rotatable=0;labelPosition=right;points=[];portConstraint=eastwest;strokeColor=inherit;fontSize=16;" vertex="1" parent="U0WkkxZh4tvvfNrw1rPE-4">
          <mxGeometry y="80" width="450" height="10" as="geometry" />
        </mxCell>
        <mxCell id="U0WkkxZh4tvvfNrw1rPE-7" value="+ MatchesPattern(PatternString: str, SymbolPlaced: str): bool&lt;br&gt;+ GetPatternSequence(): PatternSequence" style="text;strokeColor=none;fillColor=none;align=left;verticalAlign=top;spacingLeft=4;spacingRight=4;overflow=hidden;rotatable=0;points=[[0,0.5],[1,0.5]];portConstraint=eastwest;whiteSpace=wrap;html=1;fontSize=16;" vertex="1" parent="U0WkkxZh4tvvfNrw1rPE-4">
          <mxGeometry y="90" width="450" height="60" as="geometry" />
        </mxCell>
        <mxCell id="U0WkkxZh4tvvfNrw1rPE-8" value="Cell" style="swimlane;fontStyle=1;align=center;verticalAlign=top;childLayout=stackLayout;horizontal=1;startSize=26;horizontalStack=0;resizeParent=1;resizeParentMax=0;resizeLast=0;collapsible=1;marginBottom=0;whiteSpace=wrap;html=1;fontSize=16;" vertex="1" parent="WIyWlLk6GJQsqaUBKTNV-1">
          <mxGeometry x="610" y="200" width="380" height="240" as="geometry" />
        </mxCell>
        <mxCell id="U0WkkxZh4tvvfNrw1rPE-9" value="- Symbol: str&lt;br&gt;- SymbolsNotAllowed: list" style="text;strokeColor=none;fillColor=none;align=left;verticalAlign=top;spacingLeft=4;spacingRight=4;overflow=hidden;rotatable=0;points=[[0,0.5],[1,0.5]];portConstraint=eastwest;whiteSpace=wrap;html=1;fontSize=16;" vertex="1" parent="U0WkkxZh4tvvfNrw1rPE-8">
          <mxGeometry y="26" width="380" height="64" as="geometry" />
        </mxCell>
        <mxCell id="U0WkkxZh4tvvfNrw1rPE-10" value="" style="line;strokeWidth=1;fillColor=none;align=left;verticalAlign=middle;spacingTop=-1;spacingLeft=3;spacingRight=3;rotatable=0;labelPosition=right;points=[];portConstraint=eastwest;strokeColor=inherit;fontSize=16;" vertex="1" parent="U0WkkxZh4tvvfNrw1rPE-8">
          <mxGeometry y="90" width="380" height="8" as="geometry" />
        </mxCell>
        <mxCell id="U0WkkxZh4tvvfNrw1rPE-11" value="+ GetSymbol(): str&lt;br&gt;+ IsEmpty(): bool&lt;br&gt;+ ChangeSymbolInCell(NewSymbol: str)&lt;br&gt;+ CheckSymbolAllowed(SymbolToCheck: str): bool&lt;br&gt;+ AddToNotAllowedSymbols(SymbolToAdd: str)&lt;br&gt;+ UpdateCell()" style="text;strokeColor=none;fillColor=none;align=left;verticalAlign=top;spacingLeft=4;spacingRight=4;overflow=hidden;rotatable=0;points=[[0,0.5],[1,0.5]];portConstraint=eastwest;whiteSpace=wrap;html=1;fontSize=16;" vertex="1" parent="U0WkkxZh4tvvfNrw1rPE-8">
          <mxGeometry y="98" width="380" height="142" as="geometry" />
        </mxCell>
        <mxCell id="U0WkkxZh4tvvfNrw1rPE-12" value="BlockedCell" style="swimlane;fontStyle=1;align=center;verticalAlign=top;childLayout=stackLayout;horizontal=1;startSize=26;horizontalStack=0;resizeParent=1;resizeParentMax=0;resizeLast=0;collapsible=1;marginBottom=0;whiteSpace=wrap;html=1;fontSize=16;" vertex="1" parent="WIyWlLk6GJQsqaUBKTNV-1">
          <mxGeometry x="610" y="491" width="380" height="94" as="geometry" />
        </mxCell>
        <mxCell id="U0WkkxZh4tvvfNrw1rPE-13" value="- Symbol: str" style="text;strokeColor=none;fillColor=none;align=left;verticalAlign=top;spacingLeft=4;spacingRight=4;overflow=hidden;rotatable=0;points=[[0,0.5],[1,0.5]];portConstraint=eastwest;whiteSpace=wrap;html=1;fontSize=16;" vertex="1" parent="U0WkkxZh4tvvfNrw1rPE-12">
          <mxGeometry y="26" width="380" height="34" as="geometry" />
        </mxCell>
        <mxCell id="U0WkkxZh4tvvfNrw1rPE-14" value="" style="line;strokeWidth=1;fillColor=none;align=left;verticalAlign=middle;spacingTop=-1;spacingLeft=3;spacingRight=3;rotatable=0;labelPosition=right;points=[];portConstraint=eastwest;strokeColor=inherit;fontSize=16;" vertex="1" parent="U0WkkxZh4tvvfNrw1rPE-12">
          <mxGeometry y="60" width="380" height="8" as="geometry" />
        </mxCell>
        <mxCell id="U0WkkxZh4tvvfNrw1rPE-15" value="+ CheckSymbolAllowed(SymbolToCheck: str): bool" style="text;strokeColor=none;fillColor=none;align=left;verticalAlign=top;spacingLeft=4;spacingRight=4;overflow=hidden;rotatable=0;points=[[0,0.5],[1,0.5]];portConstraint=eastwest;whiteSpace=wrap;html=1;fontSize=16;" vertex="1" parent="U0WkkxZh4tvvfNrw1rPE-12">
          <mxGeometry y="68" width="380" height="26" as="geometry" />
        </mxCell>
        <mxCell id="U0WkkxZh4tvvfNrw1rPE-16" value="" style="endArrow=diamondThin;endFill=0;endSize=24;html=1;rounded=0;fontSize=12;curved=1;exitX=0.444;exitY=0;exitDx=0;exitDy=0;exitPerimeter=0;" edge="1" parent="WIyWlLk6GJQsqaUBKTNV-1" source="U0WkkxZh4tvvfNrw1rPE-4">
          <mxGeometry width="160" relative="1" as="geometry">
            <mxPoint x="270" y="690" as="sourcePoint" />
            <mxPoint x="270" y="560" as="targetPoint" />
          </mxGeometry>
        </mxCell>
        <mxCell id="U0WkkxZh4tvvfNrw1rPE-18" value="" style="endArrow=diamondThin;endFill=1;endSize=24;html=1;rounded=0;fontSize=12;curved=1;exitX=-0.004;exitY=0.124;exitDx=0;exitDy=0;exitPerimeter=0;" edge="1" parent="WIyWlLk6GJQsqaUBKTNV-1" source="U0WkkxZh4tvvfNrw1rPE-11">
          <mxGeometry width="160" relative="1" as="geometry">
            <mxPoint x="460" y="180" as="sourcePoint" />
            <mxPoint x="520" y="316" as="targetPoint" />
          </mxGeometry>
        </mxCell>
        <mxCell id="U0WkkxZh4tvvfNrw1rPE-22" value="" style="endArrow=block;html=1;endFill=0;edgeStyle=elbowEdgeStyle;elbow=vertical;rounded=0;fontSize=12;startSize=8;endSize=8;curved=1;exitX=0.5;exitY=0;exitDx=0;exitDy=0;" edge="1" parent="WIyWlLk6GJQsqaUBKTNV-1" source="U0WkkxZh4tvvfNrw1rPE-12" target="U0WkkxZh4tvvfNrw1rPE-11">
          <mxGeometry width="160" relative="1" as="geometry">
            <mxPoint x="690" y="460" as="sourcePoint" />
            <mxPoint x="850" y="460" as="targetPoint" />
          </mxGeometry>
        </mxCell>
      </root>
    </mxGraphModel>
  </diagram>
</mxfile>
